<svg xmlns="http://www.w3.org/2000/svg" xmlns:xlink="http://www.w3.org/1999/xlink" contentStyleType="text/css" data-diagram-type="CLASS" height="730px" preserveAspectRatio="none" style="width:643px;height:730px;background:#FFFFFF;" version="1.1" viewBox="0 0 643 730" width="643px" zoomAndPan="magnify"><defs/><g><!--class Jugador--><g class="entity" data-entity="Jugador" data-source-line="1" data-uid="ent0002" id="entity_Jugador"><rect fill="#F1F1F1" height="88.8594" rx="2.5" ry="2.5" style="stroke:#181818;stroke-width:0.5;" width="180.7314" x="199.89" y="634.95"/><ellipse cx="259.1678" cy="655.0828" fill="#ADD1B2" rx="11" ry="11" style="stroke:#181818;stroke-width:1;"/><path d="M262.1366,660.7234 Q261.5585,661.0203 260.9178,661.1609 Q260.2772,661.3172 259.5741,661.3172 Q257.0741,661.3172 255.746,659.6766 Q254.4335,658.0203 254.4335,654.8953 Q254.4335,651.7703 255.746,650.1141 Q257.0741,648.4578 259.5741,648.4578 Q260.2772,648.4578 260.9178,648.6141 Q261.5741,648.7703 262.1366,649.0672 L262.1366,651.7859 Q261.5116,651.2078 260.9178,650.9422 Q260.3241,650.6609 259.6991,650.6609 Q258.3553,650.6609 257.6678,651.7391 Q256.9803,652.8016 256.9803,654.8953 Q256.9803,656.9891 257.6678,658.0672 Q258.3553,659.1297 259.6991,659.1297 Q260.3241,659.1297 260.9178,658.8641 Q261.5116,658.5828 262.1366,658.0047 L262.1366,660.7234 Z " fill="#000000"/><text fill="#000000" font-family="sans-serif" font-size="12" font-style="italic" lengthAdjust="spacing" textLength="49.7168" x="281.6473" y="651.0887">&#171;Entity&#187;</text><text fill="#000000" font-family="sans-serif" font-size="14" lengthAdjust="spacing" textLength="53.6758" x="279.6678" y="666.9139">Jugador</text><line style="stroke:#181818;stroke-width:0.5;" x1="200.89" x2="379.6214" y1="675.2156" y2="675.2156"/><rect fill="none" height="6" style="stroke:#C82930;stroke-width:1;" width="6" x="207.89" y="685.8641"/><text fill="#000000" font-family="sans-serif" font-size="14" lengthAdjust="spacing" textLength="119.2188" x="219.89" y="692.2107">nickname: String</text><line style="stroke:#181818;stroke-width:0.5;" x1="200.89" x2="379.6214" y1="699.5125" y2="699.5125"/><ellipse cx="210.89" cy="713.1609" fill="#84BE84" rx="3" ry="3" style="stroke:#038048;stroke-width:1;"/><text fill="#000000" font-family="sans-serif" font-size="14" lengthAdjust="spacing" textLength="154.7314" x="219.89" y="716.5076">getNickname(): String</text></g><!--class Equipo--><g class="entity" data-entity="Equipo" data-source-line="6" data-uid="ent0003" id="entity_Equipo"><rect fill="#F1F1F1" height="137.75" rx="2.5" ry="2.5" style="stroke:#181818;stroke-width:0.5;" width="300.7295" x="335.89" y="420.2"/><ellipse cx="458.0311" cy="440.3328" fill="#ADD1B2" rx="11" ry="11" style="stroke:#181818;stroke-width:1;"/><path d="M460.9999,445.9734 Q460.4217,446.2703 459.7811,446.4109 Q459.1405,446.5672 458.4374,446.5672 Q455.9374,446.5672 454.6092,444.9266 Q453.2967,443.2703 453.2967,440.1453 Q453.2967,437.0203 454.6092,435.3641 Q455.9374,433.7078 458.4374,433.7078 Q459.1405,433.7078 459.7811,433.8641 Q460.4374,434.0203 460.9999,434.3172 L460.9999,437.0359 Q460.3749,436.4578 459.7811,436.1922 Q459.1874,435.9109 458.5624,435.9109 Q457.2186,435.9109 456.5311,436.9891 Q455.8436,438.0516 455.8436,440.1453 Q455.8436,442.2391 456.5311,443.3172 Q457.2186,444.3797 458.5624,444.3797 Q459.1874,444.3797 459.7811,444.1141 Q460.3749,443.8328 460.9999,443.2547 L460.9999,445.9734 Z " fill="#000000"/><text fill="#000000" font-family="sans-serif" font-size="12" font-style="italic" lengthAdjust="spacing" textLength="49.7168" x="477.6463" y="436.3387">&#171;Entity&#187;</text><text fill="#000000" font-family="sans-serif" font-size="14" lengthAdjust="spacing" textLength="47.9473" x="478.5311" y="452.1639">Equipo</text><line style="stroke:#181818;stroke-width:0.5;" x1="336.89" x2="635.6195" y1="460.4656" y2="460.4656"/><rect fill="none" height="6" style="stroke:#C82930;stroke-width:1;" width="6" x="343.89" y="471.1141"/><text fill="#000000" font-family="sans-serif" font-size="14" lengthAdjust="spacing" textLength="105.2803" x="355.89" y="477.4607">nombre: String</text><rect fill="none" height="6" style="stroke:#C82930;stroke-width:1;" width="6" x="343.89" y="487.4109"/><text fill="#000000" font-family="sans-serif" font-size="14" lengthAdjust="spacing" textLength="180.1201" x="355.89" y="493.7576">jugadores: List&lt;Jugador&gt;</text><line style="stroke:#181818;stroke-width:0.5;" x1="336.89" x2="635.6195" y1="501.0594" y2="501.0594"/><ellipse cx="346.89" cy="514.7078" fill="#84BE84" rx="3" ry="3" style="stroke:#038048;stroke-width:1;"/><text fill="#000000" font-family="sans-serif" font-size="14" lengthAdjust="spacing" textLength="140.793" x="355.89" y="518.0545">getNombre(): String</text><ellipse cx="346.89" cy="531.0047" fill="#84BE84" rx="3" ry="3" style="stroke:#038048;stroke-width:1;"/><text fill="#000000" font-family="sans-serif" font-size="14" lengthAdjust="spacing" textLength="274.7295" x="355.89" y="534.3514">agregarJugador(jugador: Jugador): void</text><ellipse cx="346.89" cy="547.3016" fill="#84BE84" rx="3" ry="3" style="stroke:#038048;stroke-width:1;"/><text fill="#000000" font-family="sans-serif" font-size="14" lengthAdjust="spacing" textLength="214.2725" x="355.89" y="550.6482">getJugadores(): List&lt;Jugador&gt;</text></g><!--class GestorEquipos--><g class="entity" data-entity="GestorEquipos" data-source-line="14" data-uid="ent0004" id="entity_GestorEquipos"><rect fill="#F1F1F1" height="137.75" rx="2.5" ry="2.5" style="stroke:#181818;stroke-width:0.5;" width="566.5039" x="7" y="205.45"/><ellipse cx="235.0981" cy="225.5828" fill="#ADD1B2" rx="11" ry="11" style="stroke:#181818;stroke-width:1;"/><path d="M238.0669,231.2234 Q237.4888,231.5203 236.8481,231.6609 Q236.2075,231.8172 235.5044,231.8172 Q233.0044,231.8172 231.6763,230.1766 Q230.3638,228.5203 230.3638,225.3953 Q230.3638,222.2703 231.6763,220.6141 Q233.0044,218.9578 235.5044,218.9578 Q236.2075,218.9578 236.8481,219.1141 Q237.5044,219.2703 238.0669,219.5672 L238.0669,222.2859 Q237.4419,221.7078 236.8481,221.4422 Q236.2544,221.1609 235.6294,221.1609 Q234.2856,221.1609 233.5981,222.2391 Q232.9106,223.3016 232.9106,225.3953 Q232.9106,227.4891 233.5981,228.5672 Q234.2856,229.6297 235.6294,229.6297 Q236.2544,229.6297 236.8481,229.3641 Q237.4419,229.0828 238.0669,228.5047 L238.0669,231.2234 Z " fill="#000000"/><text fill="#000000" font-family="sans-serif" font-size="12" font-style="italic" lengthAdjust="spacing" textLength="58.3242" x="277.3398" y="221.5887">&#171;Control&#187;</text><text fill="#000000" font-family="sans-serif" font-size="14" lengthAdjust="spacing" textLength="101.8076" x="255.5981" y="237.4139">GestorEquipos</text><line style="stroke:#181818;stroke-width:0.5;" x1="8" x2="572.5039" y1="245.7156" y2="245.7156"/><line style="stroke:#181818;stroke-width:0.5;" x1="8" x2="572.5039" y1="253.7156" y2="253.7156"/><ellipse cx="18" cy="267.3641" fill="#84BE84" rx="3" ry="3" style="stroke:#038048;stroke-width:1;"/><text fill="#000000" font-family="sans-serif" font-size="14" lengthAdjust="spacing" textLength="262.9648" x="27" y="270.7107">registrarEquipo(nombre: String): void</text><ellipse cx="18" cy="283.6609" fill="#84BE84" rx="3" ry="3" style="stroke:#038048;stroke-width:1;"/><text fill="#000000" font-family="sans-serif" font-size="14" lengthAdjust="spacing" textLength="540.5039" x="27" y="287.0076">a&#241;adirJugadorAEquipo(nombreEquipo: String, nicknameJugador: String): void</text><ellipse cx="18" cy="299.9578" fill="#84BE84" rx="3" ry="3" style="stroke:#038048;stroke-width:1;"/><text fill="#000000" font-family="sans-serif" font-size="14" lengthAdjust="spacing" textLength="260.2646" x="27" y="303.3045">consultarEquiposYJugadores(): String</text><ellipse cx="18" cy="316.2547" fill="#84BE84" rx="3" ry="3" style="stroke:#038048;stroke-width:1;"/><text fill="#000000" font-family="sans-serif" font-size="14" lengthAdjust="spacing" textLength="316.2988" x="27" y="319.6014">buscarEquipo(nombreEquipo: String): Equipo</text><ellipse cx="18" cy="332.5516" fill="#84BE84" rx="3" ry="3" style="stroke:#038048;stroke-width:1;"/><text fill="#000000" font-family="sans-serif" font-size="14" lengthAdjust="spacing" textLength="293.7471" x="27" y="335.8982">buscarJugador(nickname: String): Jugador</text></g><!--class VistaAdmin--><g class="entity" data-entity="VistaAdmin" data-source-line="22" data-uid="ent0005" id="entity_VistaAdmin"><rect fill="#F1F1F1" height="121.4531" rx="2.5" ry="2.5" style="stroke:#181818;stroke-width:0.5;" width="232.958" x="173.77" y="7"/><ellipse cx="246.1523" cy="27.1328" fill="#ADD1B2" rx="11" ry="11" style="stroke:#181818;stroke-width:1;"/><path d="M249.1211,32.7734 Q248.5429,33.0703 247.9023,33.2109 Q247.2617,33.3672 246.5586,33.3672 Q244.0586,33.3672 242.7304,31.7266 Q241.4179,30.0703 241.4179,26.9453 Q241.4179,23.8203 242.7304,22.1641 Q244.0586,20.5078 246.5586,20.5078 Q247.2617,20.5078 247.9023,20.6641 Q248.5586,20.8203 249.1211,21.1172 L249.1211,23.8359 Q248.4961,23.2578 247.9023,22.9922 Q247.3086,22.7109 246.6836,22.7109 Q245.3398,22.7109 244.6523,23.7891 Q243.9648,24.8516 243.9648,26.9453 Q243.9648,29.0391 244.6523,30.1172 Q245.3398,31.1797 246.6836,31.1797 Q247.3086,31.1797 247.9023,30.9141 Q248.4961,30.6328 249.1211,30.0547 L249.1211,32.7734 Z " fill="#000000"/><text fill="#000000" font-family="sans-serif" font-size="12" font-style="italic" lengthAdjust="spacing" textLength="68.4082" x="272.2949" y="23.1387">&#171;Interface&#187;</text><text fill="#000000" font-family="sans-serif" font-size="14" lengthAdjust="spacing" textLength="79.6934" x="266.6523" y="38.9639">VistaAdmin</text><line style="stroke:#181818;stroke-width:0.5;" x1="174.77" x2="405.728" y1="47.2656" y2="47.2656"/><rect fill="none" height="6" style="stroke:#C82930;stroke-width:1;" width="6" x="181.77" y="57.9141"/><text fill="#000000" font-family="sans-serif" font-size="14" lengthAdjust="spacing" textLength="155.5791" x="193.77" y="64.2607">gestor: GestorEquipos</text><line style="stroke:#181818;stroke-width:0.5;" x1="174.77" x2="405.728" y1="71.5625" y2="71.5625"/><ellipse cx="184.77" cy="85.2109" fill="#84BE84" rx="3" ry="3" style="stroke:#038048;stroke-width:1;"/><text fill="#000000" font-family="sans-serif" font-size="14" lengthAdjust="spacing" textLength="206.958" x="193.77" y="88.5576">accionRegistrarEquipo(): void</text><ellipse cx="184.77" cy="101.5078" fill="#84BE84" rx="3" ry="3" style="stroke:#038048;stroke-width:1;"/><text fill="#000000" font-family="sans-serif" font-size="14" lengthAdjust="spacing" textLength="204.75" x="193.77" y="104.8545">accionAgregarJugador(): void</text><ellipse cx="184.77" cy="117.8047" fill="#84BE84" rx="3" ry="3" style="stroke:#038048;stroke-width:1;"/><text fill="#000000" font-family="sans-serif" font-size="14" lengthAdjust="spacing" textLength="202.46" x="193.77" y="121.1514">accionConsultarListas(): void</text></g><!--reverse link Equipo to Jugador--><g class="link" data-entity-1="Equipo" data-entity-2="Jugador" data-source-line="29" data-uid="lnk6" id="link_Equipo_Jugador"><path codeLine="29" d="M406.5583,566.6355 C380.0483,592.1155 359.34,612.01 335.74,634.68" fill="none" id="Equipo-backto-Jugador" style="stroke:#181818;stroke-width:1;"/><polygon fill="none" points="415.21,558.32,408.1123,559.5939,406.5583,566.6355,413.656,565.3617,415.21,558.32" style="stroke:#181818;stroke-width:1;"/><text fill="#000000" font-family="sans-serif" font-size="13" lengthAdjust="spacing" textLength="56.2847" x="383.25" y="601.0169">contiene</text><text fill="#000000" font-family="sans-serif" font-size="13" lengthAdjust="spacing" textLength="8.271" x="399.8361" y="577.948">1</text><text fill="#000000" font-family="sans-serif" font-size="13" lengthAdjust="spacing" textLength="23.0356" x="317.9466" y="623.764">0..*</text></g><!--link VistaAdmin to GestorEquipos--><g class="link" data-entity-1="VistaAdmin" data-entity-2="GestorEquipos" data-source-line="30" data-uid="lnk7" id="link_VistaAdmin_GestorEquipos"><path codeLine="30" d="M290.25,128.73 C290.25,152.67 290.25,174.35 290.25,199.05" fill="none" id="VistaAdmin-to-GestorEquipos" style="stroke:#181818;stroke-width:1;stroke-dasharray:7.0,7.0;"/><polygon fill="#181818" points="290.25,205.05,294.25,196.05,290.25,200.05,286.25,196.05,290.25,205.05" style="stroke:#181818;stroke-width:1;"/><text fill="#000000" font-family="sans-serif" font-size="13" lengthAdjust="spacing" textLength="38.9175" x="291.25" y="171.5169">&#171;use&#187;</text></g><!--link GestorEquipos to Equipo--><g class="link" data-entity-1="GestorEquipos" data-entity-2="Equipo" data-source-line="31" data-uid="lnk8" id="link_GestorEquipos_Equipo"><path codeLine="31" d="M353.08,343.52 C375.58,367.95 396.8734,391.0683 419.3834,415.4883" fill="none" id="GestorEquipos-to-Equipo" style="stroke:#181818;stroke-width:1;stroke-dasharray:7.0,7.0;"/><polygon fill="#181818" points="423.45,419.9,420.2912,410.5714,420.0612,416.2236,414.409,415.9936,423.45,419.9" style="stroke:#181818;stroke-width:1;"/><text fill="#000000" font-family="sans-serif" font-size="13" lengthAdjust="spacing" textLength="38.9175" x="394.25" y="386.2669">&#171;use&#187;</text></g><!--link GestorEquipos to Jugador--><g class="link" data-entity-1="GestorEquipos" data-entity-2="Jugador" data-source-line="32" data-uid="lnk9" id="link_GestorEquipos_Jugador"><path codeLine="32" d="M283.44,343.43 C281.33,367.64 279.29,395.11 278.25,420.2 C275.72,481.37 275.21,496.8 278.25,557.95 C279.52,583.45 281.624,605.9071 284.174,628.7371" fill="none" id="GestorEquipos-to-Jugador" style="stroke:#181818;stroke-width:1;stroke-dasharray:7.0,7.0;"/><polygon fill="#181818" points="284.84,634.7,287.8162,625.3116,284.285,629.7309,279.8657,626.1996,284.84,634.7" style="stroke:#181818;stroke-width:1;"/><text fill="#000000" font-family="sans-serif" font-size="13" lengthAdjust="spacing" textLength="38.9175" x="279.25" y="493.6469">&#171;use&#187;</text></g><!--SRC=[VL9DIiGm5Dxt58-kEeujkYsbK8P1BE92GN2PIME8jeacgI3YeJo35pDjaqpI4PTz_Txtzu9xf1Iq8qMTa51LUwwP_gXh-4m0Sk0Clt0qa1BkjMISck4MAD6tTfvj_9-l9C4psVvjPA_Y3oun76J8bCFpeajK2JTCwShwgBtCl1A8J7D49Q58McncEKeNme3V1UiSHUia9fPOn3k-8aeBkVXMnlXES2r5RvrlmUYPHOai98kJX8Bevnjrp7bh8lpouRREVRUj2t1AXmLNOw-Ti7gCqWIT74Q5L_PYEGDV1W7SDRW-yiPtUQpemHI0ccvWtFHppJMHJmWJVriwDrZ6JIwDOCm4lrir67Ks8vhuggU0dUjYEY9I7c4isXUNNgOWyXpIYw8uI_sZBgSQDIES946AegXNTozDib6PJ4aydv1MuJ_8KSvYVW40]--></g></svg>